#!OML:ASF E:\Mandelcareful walks\Project 1\Capture day 1\Session 1\Subject1.ASF
:FULLY-SPECIFIED
:DEGREES
329
root -18.8835 15.8798 -1.03346 358.944 67.1134 348.588
lowerback 21.2737 1.92966 -0.597911
upperback 8.62937 2.84347 0.500889
thorax -2.5544 1.56428 0.215663
lowerneck -12.5812 17.9198 13.6777
upperneck 13.4482 26.0597 -19.9864
head 10.9971 11.422 -4.74087
rclavicle 2.60408e-014 1.59028e-015
rhumerus -15.353 5.53566 -87.0705
rradius 41.7688
rwrist -17.6707
rhand -12.8533 -30.0639
rfingers 7.12502
rthumb 13.2346 -59.6238
lclavicle 2.60408e-014 1.59028e-015
lhumerus -22.2894 -4.82758 86.0335
lradius 33.8713
lwrist 19.1881
lhand -24.4736 -13.4176
lfingers 7.12502
lthumb 2.01995 16.5526
rfemur -6.03408 6.34131 8.90111
rtibia 20.3153
rfoot -22.93 -1.75341
rtoes -8.21277
lfemur -41.5569 19.1617 -17.6958
ltibia 56.5013
lfoot -23.031 6.26125
ltoes 3.45421
330
root -18.8492 15.8769 -1.03391 358.783 67.7143 348.247
lowerback 20.6013 1.80509 -0.159691
upperback 8.82837 2.7683 0.272941
thorax -1.9701 1.54597 -0.225631
lowerneck -11.6407 18.6306 14.3353
upperneck 12.3145 27.0887 -21.1029
head 10.906 11.9661 -5.00095
rclavicle 2.92213e-014 -1.98785e-014
rhumerus -15.1459 5.25189 -87.3509
rradius 41.4972
rwrist -17.5517
rhand -12.5434 -29.4005
rfingers 7.12502
rthumb 13.5333 -58.9407
lclavicle 2.92213e-014 -1.98785e-014
lhumerus -21.9451 -5.16673 85.8576
lradius 33.9081
lwrist 19.4295
lhand -24.2244 -13.4254
lfingers 7.12502
lthumb 2.26067 16.5424
rfemur -5.56644 5.92411 8.94542
rtibia 19.812
rfoot -22.9049 -1.69669
rtoes -6.94118
lfemur -41.7118 18.7957 -17.7473
ltibia 56.5886
lfoot -23.2647 5.95565
ltoes 4.01672
331
root -18.8279 15.8714 -1.03158 358.824 68.236 348.084
lowerback 20.0899 1.78622 0.236783
upperback 9.01385 2.81323 -0.106147
thorax -1.4741 1.59276 -0.834208
lowerneck -11.3842 19.2186 15.0309
upperneck 11.5903 27.8608 -21.8559
head 10.9936 12.3472 -5.14406
rclavicle 1.43125e-014 1.39149e-015
rhumerus -14.8569 4.68201 -87.7567
rradius 41.2506
rwrist -17.4516
rhand -12.7378 -29.6023
rfingers 7.12502
rthumb 13.346 -59.1549
lclavicle 1.43125e-014 1.39149e-015
lhumerus -21.3591 -5.79401 85.4996
lradius 33.8114
lwrist 19.5781
lhand -24.3488 -13.4877
lfingers 7.12502
lthumb 2.14051 16.4813
rfemur -5.21371 5.6406 8.95445
rtibia 19.2947
rfoot -22.8946 -1.84482
rtoes -6.33692
lfemur -41.964 18.4321 -17.8237
ltibia 56.6659
lfoot -23.4128 5.64782
ltoes 4.82544
332
root -18.8068 15.8641 -1.02814 358.542 68.6442 347.731
lowerback 19.9752 1.80895 0.271943
upperback 8.92942 2.84234 -0.18844
thorax -1.50052 1.60792 -0.944772
lowerneck -10.5904 19.6728 15.4621
upperneck 10.9752 28.5723 -22.5545
head 10.9729 12.7352 -5.29608
rclavicle 4.77083e-015 2.5842e-014
rhumerus -15.264 5.04367 -87.7479
rradius 41.2414
rwrist -17.636
rhand -12.5511 -29.6766
rfingers 7.12502
rthumb 13.5258 -59.2173
lclavicle 4.77083e-015 2.5842e-014
lhumerus -21.3796 -5.73923 85.4882
lradius 33.6632
lwrist 19.3217
lhand -24.7672 -13.4941
lfingers 7.12502
lthumb 1.73638 16.4786
rfemur -4.77174 5.43239 9.07439
rtibia 18.7687
rfoot -22.8766 -2.09174
rtoes -6.71369
lfemur -42.0558 18.1447 -17.7593
ltibia 56.7581
lfoot -23.447 5.43757
ltoes 4.82744
333
root -18.7709 15.858 -1.02577 357.803 68.9219 347.076
lowerback 20.0085 1.84168 0.388033
upperback 8.85718 2.90366 -0.179115
thorax -1.58908 1.63945 -1.01665
lowerneck -9.68748 19.9547 15.7821
upperneck 10.4252 29.0673 -23.1784
head 10.8894 13.0362 -5.47831
rclavicle 2.82274e-014 1.27222e-014
rhumerus -15.6701 5.67894 -87.645
rradius 41.261
rwrist -17.8085
rhand -12.0689 -29.7497
rfingers 7.12502
rthumb 13.9906 -59.2589
lclavicle 2.82274e-014 1.27222e-014
lhumerus -21.4593 -5.48512 85.6016
lradius 33.4578
lwrist 18.9834
lhand -25.0298 -13.1407
lfingers 7.12502
lthumb 1.48279 16.8339
rfemur -4.18558 5.22602 9.29822
rtibia 18.3207
rfoot -22.9157 -2.24604
rtoes -7.57968
lfemur -41.8754 17.9698 -17.5334
ltibia 56.889
lfoot -23.5955 5.28503
ltoes 4.61072
334
root -18.7269 15.8523 -1.02289 357.059 69.031 346.441
lowerback 20.064 2.00363 0.605066
upperback 8.78993 3.14707 -0.267831
thorax -1.66811 1.76556 -1.28771
lowerneck -9.20756 20.1343 16.1638
upperneck 10.1013 29.3592 -23.5878
head 10.8922 13.2133 -5.61425
rclavicle -9.93923e-015 1.59028e-015
rhumerus -16.0518 5.84326 -87.6541
rradius 41.2929
rwrist -17.8859
rhand -12.0675 -30.0741
rfingers 7.12502
rthumb 13.9919 -59.5832
lclavicle -9.93923e-015 1.59028e-015
lhumerus -21.4906 -5.41659 85.6487
lradius 33.2952
lwrist 18.7614
lhand -24.9331 -12.8241
lfingers 7.12502
lthumb 1.57614 17.1498
rfemur -3.59785 5.20281 9.50884
rtibia 17.8565
rfoot -22.878 -2.34597
rtoes -7.899
lfemur -41.6315 17.938 -17.293
ltibia 57.05
lfoot -23.8944 5.1319
ltoes 5.00949
335
root -18.7076 15.8442 -1.01651 356.462 69.6425 345.732
lowerback 19.8346 2.07221 0.724916
upperback 8.86738 3.26338 -0.27985
thorax -1.4583 1.83165 -1.37814
lowerneck -9.21604 20.3044 16.3587
upperneck 9.82361 29.6085 -23.9657
head 10.9572 13.3267 -5.68308
rclavicle -3.91606e-014 2.82274e-014
rhumerus -15.9903 5.68741 -87.5091
rradius 41.2328
rwrist -17.7615
rhand -12.155 -30.4615
rfingers 7.12502
rthumb 13.9077 -59.9765
lclavicle -3.91606e-014 2.82274e-014
lhumerus -21.1462 -5.21413 85.6768
lradius 33.3263
lwrist 18.8212
lhand -24.3563 -12.3979
lfingers 7.12502
lthumb 2.13324 17.5712
rfemur -3.19429 4.97718 9.76682
rtibia 17.4679
rfoot -22.8409 -2.68095
rtoes -7.49567
lfemur -41.8595 17.5811 -17.1878
ltibia 57.2372
lfoot -23.8698 4.91028
ltoes 5.29133
336
root -18.687 15.8368 -1.00881 356.061 70.2852 345.231
lowerback 19.8922 2.07824 0.762113
upperback 8.73817 3.27249 -0.34943
thorax -1.61982 1.83501 -1.48177
lowerneck -9.23609 20.5284 16.4028
upperneck 9.81414 29.9498 -24.0469
head 11.0526 13.4742 -5.6142
rclavicle 2.78299e-015 1.51076e-014
rhumerus -16.2034 5.6761 -87.4918
rradius 41.1581
rwrist -17.6197
rhand -11.9857 -31.07
rfingers 7.12502
rthumb 14.0708 -60.5737
lclavicle 2.78299e-015 1.51076e-014
lhumerus -21.1552 -4.89008 85.6204
lradius 33.5101
lwrist 19.0913
lhand -23.6958 -11.8748
lfingers 7.12502
lthumb 2.7711 18.087
rfemur -2.8237 4.66351 9.92901
rtibia 17.1713
rfoot -22.8145 -2.98733
rtoes -7.53648
lfemur -42.096 17.2615 -17.1966
ltibia 57.4306
lfoot -23.7147 4.70185
ltoes 5.11949
337
root -18.6652 15.8312 -0.998499 355.59 70.9097 344.615
lowerback 19.7415 2.12009 0.747321
upperback 8.64558 3.32043 -0.33877
thorax -1.64303 1.85589 -1.46769
lowerneck -9.12246 20.6631 16.4121
upperneck 9.76621 30.1911 -24.1882
head 11.0975 13.5875 -5.6017
rclavicle -2.5842e-015 -1.15295e-014
rhumerus -16.3833 5.71783 -87.3659
rradius 40.9399
rwrist -17.6571
rhand -11.855 -31.6109
rfingers 7.12502
rthumb 14.1967 -61.1058
lclavicle -2.5842e-015 -1.15295e-014
lhumerus -21.1656 -4.70979 85.7538
lradius 33.5139
lwrist 19.2075
lhand -23.577 -12.0108
lfingers 7.12502
lthumb 2.88586 17.9495
rfemur -2.49359 4.39919 10.1338
rtibia 16.8626
rfoot -22.8365 -3.43983
rtoes -8.13109
lfemur -42.3734 16.9835 -17.1767
ltibia 57.6442
lfoot -23.6967 4.4604
ltoes 5.13902
